<svg width="292" height="89" viewBox="0 0 292 89" fill="none" xmlns="http://www.w3.org/2000/svg">
<path d="M47 16H55V32H47V48.5H15V80H0V0H47V16ZM80 80H63.5V0H80V80ZM103.5 64H143.5V80H87.5V0H103.5V64ZM207 16.5H215.5V64H207V80H160V64H151.5V16.5H160V0H207V16.5ZM287 16.5H263.5V80H247.5V16.5H223.5V0H287V16.5ZM168 64H199.5V16.5H168V64ZM15 16V32H39V16H15Z" fill="#6BADD3"/>
<path d="M51.5 6.5V22.3047H59.5V41.1094H51.5V57.4082H19.5V88.5244H1.5V6.5H51.5ZM84.5 6.5V88.5244H65V6.5H84.5ZM108 6.5V69.7197H148V88.5244H89V6.5H108ZM211.5 6.5V22.7988H220V72.7197H211.5V88.5244H161.5V72.7197H153V22.7988H161.5V6.5H211.5ZM291.5 6.5V25.7988H268V88.5244H249V25.7988H225V6.5H291.5ZM226 24.7988H250V87.5244H267V24.7988H290.5V7.5H226V24.7988ZM162.5 23.7988H154V71.7197H162.5V87.5244H210.5V71.7197H219V23.7988H210.5V7.5H162.5V23.7988ZM90 87.5244H147V70.7197H107V7.5H90V87.5244ZM66 87.5244H83.5V7.5H66V87.5244ZM2.5 87.5244H18.5V56.4082H50.5V40.1094H58.5V23.3047H50.5V7.5H2.5V87.5244ZM49.5 8.5V24.3047H57.5V39.1094H49.5V55.4082H17.5V86.5244H3.5V8.5H49.5ZM82.5 8.5V86.5244H67V8.5H82.5ZM106 8.5V71.7197H146V86.5244H91V8.5H106ZM209.5 8.5V24.7988H218V70.7197H209.5V86.5244H163.5V70.7197H155V24.7988H163.5V8.5H209.5ZM289.5 8.5V23.7988H266V86.5244H251V23.7988H227V8.5H289.5ZM228 22.7988H252V85.5244H265V22.7988H288.5V9.5H228V22.7988ZM164.5 25.7988H156V69.7197H164.5V85.5244H208.5V69.7197H217V25.7988H208.5V9.5H164.5V25.7988ZM92 85.5244H145V72.7197H105V9.5H92V85.5244ZM68 85.5244H81.5V9.5H68V85.5244ZM4.5 85.5244H16.5V54.4082H48.5V38.1094H56.5V25.3047H48.5V9.5H4.5V85.5244Z" fill="#6BADD3"/>
</svg>
